HIERARCHY
ROOT Hips
{
	OFFSET 0.000000 0.000000 0.000000
	CHANNELS 6 Xposition Yposition Zposition Xrotation Yrotation Zrotation
	JOINT LeftUpLeg_virtual
	{
		OFFSET 0.000000 0.000000 0.000000
		CHANNELS 3 Xrotation Yrotation Zrotation
		JOINT LeftUpLeg
		{
			OFFSET 15.427100 -6.655098 0.678600
			CHANNELS 3 Xrotation Yrotation Zrotation
			JOINT LeftLeg
			{
				OFFSET 4.081073 -39.591068 13.024000
				CHANNELS 3 Xrotation Yrotation Zrotation
				JOINT LeftFoot
				{
					OFFSET -4.081074 -37.707932 -15.979700
					CHANNELS 3 Xrotation Yrotation Zrotation
					JOINT LeftToeBase
					{
						OFFSET 5.346399 -15.068900 20.645000
						CHANNELS 3 Xrotation Yrotation Zrotation
						JOINT LeftToe_End
						{
							OFFSET 2.754700 0.931300 11.300900
							CHANNELS 3 Xrotation Yrotation Zrotation
							End Site
							{
								OFFSET 0 0 0
							}
						}
					}
				}
			}
		}
	}
	JOINT RightUpLeg_virtual
	{
		OFFSET 0.000000 0.000000 0.000000
		CHANNELS 3 Xrotation Yrotation Zrotation
		JOINT RightUpLeg
		{
			OFFSET -15.569500 -6.655098 0.678600
			CHANNELS 3 Xrotation Yrotation Zrotation
			JOINT RightLeg
			{
				OFFSET -4.081825 -39.591045 13.023800
				CHANNELS 3 Xrotation Yrotation Zrotation
				JOINT RightFoot
				{
					OFFSET 4.081824 -37.707954 -15.979600
					CHANNELS 3 Xrotation Yrotation Zrotation
					JOINT RightToeBase
					{
						OFFSET -5.346400 -15.068900 20.645000
						CHANNELS 3 Xrotation Yrotation Zrotation
						JOINT RightToe_End
						{
							OFFSET -2.754700 0.931300 11.300900
							CHANNELS 3 Xrotation Yrotation Zrotation
							End Site
							{
								OFFSET 0 0 0
							}
						}
					}
				}
			}
		}
	}
	JOINT Spine_virtual
	{
		OFFSET 0.000000 0.000000 0.000000
		CHANNELS 3 Xrotation Yrotation Zrotation
		JOINT Spine
		{
			OFFSET -0.279200 12.230698 -2.892100
			CHANNELS 3 Xrotation Yrotation Zrotation
			JOINT Spine1
			{
				OFFSET -0.232667 10.192268 -1.242267
				CHANNELS 3 Xrotation Yrotation Zrotation
				JOINT Spine1_split
				{
					OFFSET -0.232667 10.192268 -1.242267
					CHANNELS 3 Xrotation Yrotation Zrotation
					JOINT Spine2
					{
						OFFSET -0.232667 10.192268 -1.242267
						CHANNELS 3 Xrotation Yrotation Zrotation
						JOINT Neck_virtual
						{
							OFFSET 0.000000 0.000000 0.000000
							CHANNELS 3 Xrotation Yrotation Zrotation
							JOINT Neck
							{
								OFFSET -0.418800 17.814194 8.416900
								CHANNELS 3 Xrotation Yrotation Zrotation
								JOINT Head
								{
									OFFSET 0.000000 7.031097 3.806800
									CHANNELS 3 Xrotation Yrotation Zrotation
									JOINT HeadTop_End
									{
										OFFSET 0.000000 24.646606 12.978600
										CHANNELS 3 Xrotation Yrotation Zrotation
										End Site
										{
											OFFSET 0 0 0
										}
									}
								}
							}
						}
						JOINT LeftShoulder_virtual
						{
							OFFSET 0.000000 0.000000 0.000000
							CHANNELS 3 Xrotation Yrotation Zrotation
							JOINT LeftShoulder
							{
								OFFSET 8.476499 7.247704 -3.868750
								CHANNELS 3 Xrotation Yrotation Zrotation
								JOINT LeftShoulder_split
								{
									OFFSET 8.476499 7.247704 -3.868750
									CHANNELS 3 Xrotation Yrotation Zrotation
									JOINT LeftArm
									{
										OFFSET 9.308998 -2.777710 0.208600
										CHANNELS 3 Xrotation Yrotation Zrotation
										JOINT LeftForeArm
										{
											OFFSET 29.972298 0.000000 0.000000
											CHANNELS 3 Xrotation Yrotation Zrotation
											JOINT LeftHand
											{
												OFFSET 26.026505 0.000000 0.000000
												CHANNELS 3 Xrotation Yrotation Zrotation
												End Site
												{
													OFFSET 0 0 0
												}
											}
										}
									}
								}
							}
						}
						JOINT RightShoulder_virtual
						{
							OFFSET 0.000000 0.000000 0.000000
							CHANNELS 3 Xrotation Yrotation Zrotation
							JOINT RightShoulder
							{
								OFFSET -7.570500 7.247704 -3.868750
								CHANNELS 3 Xrotation Yrotation Zrotation
								JOINT RightShoulder_split
								{
									OFFSET -7.570500 7.247704 -3.868750
									CHANNELS 3 Xrotation Yrotation Zrotation
									JOINT RightArm
									{
										OFFSET -9.308998 -2.777710 0.208500
										CHANNELS 3 Xrotation Yrotation Zrotation
										JOINT RightForeArm
										{
											OFFSET -29.972300 0.000000 0.000000
											CHANNELS 3 Xrotation Yrotation Zrotation
											JOINT RightHand
											{
												OFFSET -26.026505 0.000000 0.000000
												CHANNELS 3 Xrotation Yrotation Zrotation
												End Site
												{
													OFFSET 0 0 0
												}
											}
										}
									}
								}
							}
						}
					}
				}
			}
		}
	}
}
MOTION
Frames: 5
Frame Time: 0.03333333
3.614330 49.323784 128.373291 0.000000 0.000000 0.000000 18.414378 -57.630254 29.528434 -50.995401 -42.630557 50.034633 76.881026 -2.154941 -43.329617 -2.083127 4.662345 -23.584355 1.636576 1.025829 -4.171500 0.000000 0.000000 0.000000 16.799752 -58.276875 30.494018 -71.162204 27.975108 -32.976672 96.980456 14.510211 4.929437 -30.590863 -6.253654 14.629029 7.906110 -0.860376 0.836347 0.000000 0.000000 0.000000 16.489528 -59.400673 27.393471 35.443604 -2.172214 -11.387514 0.874963 4.781025 -1.397905 1.269542 -1.594654 1.373259 0.000000 0.000000 0.000000 1.431196 5.631018 -0.806557 -14.211403 18.290868 -1.480395 3.938581 21.879927 -19.222347 0.000000 0.000000 0.000000 4.612687 5.345546 -0.903379 3.550896 -18.749851 -3.425868 -4.421857 0.731159 -3.057107 -20.385625 22.771605 -25.283634 -50.887846 -78.955498 -41.168084 0.000000 0.000000 0.000000 4.367728 5.766625 -0.960217 -1.710030 30.051914 19.562732 3.237556 6.329833 -0.639751 -51.130578 -6.193949 20.378991 -35.099721 58.489266 30.141109 0.000000 0.000000 0.000000 
3.821554 49.591858 128.420685 0.000000 0.000000 0.000000 20.157128 -55.520292 29.355962 -52.505399 -43.585435 50.626366 79.400423 -2.157824 -46.865439 -3.216644 5.635849 -23.687374 1.238936 0.945034 -2.668217 0.000000 0.000000 0.000000 18.448129 -57.386491 30.262656 -71.753562 27.329207 -34.877657 95.285046 15.310236 6.622422 -31.766728 -8.171979 15.494593 10.590053 -0.572402 0.332406 0.000000 0.000000 0.000000 17.632029 -57.628430 26.606281 37.208203 -2.749874 -12.147306 0.621805 4.721537 -1.079103 1.216641 -1.791948 1.264390 0.000000 0.000000 0.000000 1.271241 5.409888 -0.250860 -14.974567 19.334421 -1.592010 1.692682 21.671929 -17.416909 0.000000 0.000000 0.000000 4.639492 5.197747 -0.509701 4.732176 -18.535603 -2.599205 -5.253403 0.029725 -3.545896 -20.333152 18.449389 -26.343442 -30.471858 -75.391266 -21.969008 0.000000 0.000000 0.000000 4.162300 5.605115 -0.683061 -1.034717 29.474360 20.490388 4.925024 6.460990 0.467947 -53.869600 -3.945255 23.127664 -35.645241 59.624300 30.791627 0.000000 0.000000 0.000000 
4.016079 50.627480 127.997520 0.000000 0.000000 0.000000 21.714932 -54.187784 29.114969 -52.241364 -43.261401 50.435729 80.153820 -1.543772 -48.189775 -4.243358 5.693791 -24.163676 -2.214102 0.793746 -0.738499 0.000000 0.000000 0.000000 20.213072 -56.912299 29.956878 -71.403576 25.936096 -36.006032 92.395889 15.787612 7.723858 -31.962816 -9.490940 16.632631 12.357000 -0.187322 -0.350441 0.000000 0.000000 0.000000 19.288140 -56.060526 26.092596 37.207394 -2.931823 -12.600184 0.498168 4.767246 -0.877703 1.249690 -2.165038 1.034715 0.000000 0.000000 0.000000 1.530376 5.344089 0.058477 -15.916581 20.177528 -1.326750 -0.510676 21.344066 -15.387718 0.000000 0.000000 0.000000 4.721739 5.165278 -0.234261 5.237492 -18.434815 -1.847887 -5.810955 -0.806778 -4.497014 -21.396819 14.232842 -26.740170 -20.258235 -71.267205 -12.725718 0.000000 0.000000 0.000000 4.098167 5.499912 -0.514190 -0.487302 28.101765 21.010618 6.494824 6.450965 1.322749 -57.239465 -3.829401 24.728982 -40.425745 63.657780 36.002999 0.000000 0.000000 0.000000 
4.361389 52.240074 127.450371 0.000000 0.000000 0.000000 22.726900 -54.046160 28.885963 -51.436058 -41.584668 49.374625 79.777552 -0.435253 -47.744190 -4.995291 5.093005 -24.197687 -6.394894 0.566760 0.882078 0.000000 0.000000 0.000000 21.930250 -56.898174 29.715704 -70.143331 24.338670 -36.120923 88.357424 15.988450 7.842396 -30.695796 -9.964518 18.459052 12.458702 0.179052 -0.938518 0.000000 0.000000 0.000000 21.220679 -55.198884 25.979197 35.665243 -2.793421 -12.909341 0.585212 4.798804 -0.716343 1.183503 -2.578068 0.856307 0.000000 0.000000 0.000000 2.129771 5.326171 0.199290 -17.085151 20.838502 -0.852933 -2.575634 21.033735 -13.324386 0.000000 0.000000 0.000000 4.843301 5.178480 0.015833 5.017004 -18.631247 -1.239575 -6.003685 -1.330503 -5.481530 -23.049109 10.456745 -27.034900 -15.082980 -68.128118 -8.379418 0.000000 0.000000 0.000000 4.138244 5.376349 -0.350447 -0.141431 26.227464 21.200871 7.642826 6.407787 2.096525 -59.456339 -5.666763 25.609096 -50.945432 68.985942 47.158525 0.000000 0.000000 0.000000 
4.850833 54.192017 127.613533 0.000000 0.000000 0.000000 22.860267 -54.816612 28.406345 -50.487734 -38.919818 47.528978 78.756043 0.968249 -45.866605 -5.721734 4.533153 -23.066556 -8.087365 0.559581 1.248636 0.000000 0.000000 0.000000 23.171736 -57.226832 29.363526 -67.860258 22.601301 -35.365306 83.553451 15.751132 7.002049 -28.350416 -9.664586 20.361033 10.818343 0.439576 -1.195789 0.000000 0.000000 0.000000 22.485726 -55.075022 25.781567 33.029333 -2.478610 -13.130787 0.909466 4.722084 -0.580000 1.158381 -2.304238 0.888440 0.000000 0.000000 0.000000 2.908176 5.238113 0.217635 -18.467793 21.275052 -0.277632 -4.350420 20.897353 -11.437588 0.000000 0.000000 0.000000 5.050816 5.115877 0.262078 4.148432 -19.132401 -0.936719 -5.355959 -1.670229 -5.842361 -24.693577 7.523023 -27.587692 -11.998486 -66.544006 -6.047222 0.000000 0.000000 0.000000 4.291773 5.189684 -0.165026 -0.083109 24.250899 20.912436 8.104930 6.258750 2.956308 -59.905608 -8.776276 26.248145 -68.783495 73.392008 65.691277 0.000000 0.000000 0.000000 
